<mxfile host="app.diagrams.net" agent="Mozilla/5.0 (Windows NT 10.0; Win64; x64) AppleWebKit/537.36 (KHTML, like Gecko) Chrome/134.0.0.0 Safari/537.36" version="26.1.1">
  <diagram name="Page-1" id="58cdce13-f638-feb5-8d6f-7d28b1aa9fa0">
    <mxGraphModel dx="991" dy="668" grid="0" gridSize="10" guides="1" tooltips="1" connect="1" arrows="1" fold="1" page="1" pageScale="1" pageWidth="1100" pageHeight="850" background="none" math="0" shadow="0">
      <root>
        <mxCell id="0" />
        <mxCell id="1" parent="0" />
        <mxCell id="FOn3hF4wjPo6RzS9PWlS-8" value="" style="shape=cube;whiteSpace=wrap;html=1;boundedLbl=1;backgroundOutline=1;darkOpacity=0.05;darkOpacity2=0.1;direction=east;flipH=1;size=37;" vertex="1" parent="1">
          <mxGeometry x="310" y="301" width="309" height="176" as="geometry" />
        </mxCell>
        <mxCell id="FOn3hF4wjPo6RzS9PWlS-10" value="" style="endArrow=classic;html=1;rounded=0;entryX=0;entryY=0;entryDx=309;entryDy=106.5;entryPerimeter=0;startSize=5;strokeColor=default;strokeWidth=2;" edge="1" parent="1" target="FOn3hF4wjPo6RzS9PWlS-8">
          <mxGeometry width="50" height="50" relative="1" as="geometry">
            <mxPoint x="153" y="408" as="sourcePoint" />
            <mxPoint x="233" y="375" as="targetPoint" />
          </mxGeometry>
        </mxCell>
        <mxCell id="FOn3hF4wjPo6RzS9PWlS-11" value="" style="endArrow=classic;html=1;rounded=0;entryX=0;entryY=0;entryDx=309;entryDy=106.5;entryPerimeter=0;startSize=5;strokeColor=default;strokeWidth=2;" edge="1" parent="1">
          <mxGeometry width="50" height="50" relative="1" as="geometry">
            <mxPoint x="153" y="391" as="sourcePoint" />
            <mxPoint x="310" y="391" as="targetPoint" />
          </mxGeometry>
        </mxCell>
        <mxCell id="FOn3hF4wjPo6RzS9PWlS-12" value="" style="endArrow=classic;html=1;rounded=0;entryX=0;entryY=0;entryDx=309;entryDy=106.5;entryPerimeter=0;startSize=5;strokeColor=default;strokeWidth=2;" edge="1" parent="1">
          <mxGeometry width="50" height="50" relative="1" as="geometry">
            <mxPoint x="153" y="370" as="sourcePoint" />
            <mxPoint x="308" y="370" as="targetPoint" />
          </mxGeometry>
        </mxCell>
        <mxCell id="FOn3hF4wjPo6RzS9PWlS-13" value="" style="endArrow=classic;html=1;rounded=0;entryX=0;entryY=0;entryDx=309;entryDy=106.5;entryPerimeter=0;startSize=5;strokeColor=default;strokeWidth=2;" edge="1" parent="1">
          <mxGeometry width="50" height="50" relative="1" as="geometry">
            <mxPoint x="153" y="428" as="sourcePoint" />
            <mxPoint x="310" y="428" as="targetPoint" />
          </mxGeometry>
        </mxCell>
        <mxCell id="FOn3hF4wjPo6RzS9PWlS-14" value="" style="endArrow=classic;html=1;rounded=0;entryX=0;entryY=0;entryDx=309;entryDy=106.5;entryPerimeter=0;startSize=5;strokeColor=default;strokeWidth=2;" edge="1" parent="1">
          <mxGeometry width="50" height="50" relative="1" as="geometry">
            <mxPoint x="153" y="449" as="sourcePoint" />
            <mxPoint x="310" y="449" as="targetPoint" />
          </mxGeometry>
        </mxCell>
        <mxCell id="FOn3hF4wjPo6RzS9PWlS-15" value="" style="endArrow=classic;html=1;rounded=0;entryX=0;entryY=0;entryDx=309;entryDy=106.5;entryPerimeter=0;startSize=5;strokeColor=default;strokeWidth=2;" edge="1" parent="1">
          <mxGeometry width="50" height="50" relative="1" as="geometry">
            <mxPoint x="154" y="468" as="sourcePoint" />
            <mxPoint x="310" y="468" as="targetPoint" />
          </mxGeometry>
        </mxCell>
        <mxCell id="FOn3hF4wjPo6RzS9PWlS-17" value="" style="endArrow=classic;html=1;rounded=0;entryX=0;entryY=0;entryDx=309;entryDy=106.5;entryPerimeter=0;startSize=5;strokeColor=default;strokeWidth=2;" edge="1" parent="1">
          <mxGeometry width="50" height="50" relative="1" as="geometry">
            <mxPoint x="154" y="351" as="sourcePoint" />
            <mxPoint x="310" y="351" as="targetPoint" />
          </mxGeometry>
        </mxCell>
        <mxCell id="FOn3hF4wjPo6RzS9PWlS-25" value="Сенсорний екран" style="text;html=1;align=center;verticalAlign=middle;whiteSpace=wrap;rounded=0;" vertex="1" parent="1">
          <mxGeometry x="26" y="335" width="146" height="28" as="geometry" />
        </mxCell>
        <mxCell id="FOn3hF4wjPo6RzS9PWlS-26" value="Фізичні кнопки" style="text;html=1;align=center;verticalAlign=middle;whiteSpace=wrap;rounded=0;" vertex="1" parent="1">
          <mxGeometry x="26" y="355" width="146" height="28" as="geometry" />
        </mxCell>
        <mxCell id="FOn3hF4wjPo6RzS9PWlS-27" value="Мікрофон" style="text;html=1;align=center;verticalAlign=middle;whiteSpace=wrap;rounded=0;" vertex="1" parent="1">
          <mxGeometry x="26" y="375" width="146" height="28" as="geometry" />
        </mxCell>
        <mxCell id="FOn3hF4wjPo6RzS9PWlS-28" value="USB порт" style="text;html=1;align=center;verticalAlign=middle;whiteSpace=wrap;rounded=0;" vertex="1" parent="1">
          <mxGeometry x="26" y="411" width="146" height="28" as="geometry" />
        </mxCell>
        <mxCell id="FOn3hF4wjPo6RzS9PWlS-29" value="Wi-Fi" style="text;html=1;align=center;verticalAlign=middle;whiteSpace=wrap;rounded=0;" vertex="1" parent="1">
          <mxGeometry x="26" y="433" width="146" height="28" as="geometry" />
        </mxCell>
        <mxCell id="FOn3hF4wjPo6RzS9PWlS-30" value="Bluetooth" style="text;html=1;align=center;verticalAlign=middle;whiteSpace=wrap;rounded=0;" vertex="1" parent="1">
          <mxGeometry x="26" y="453" width="146" height="28" as="geometry" />
        </mxCell>
        <mxCell id="FOn3hF4wjPo6RzS9PWlS-31" value="GPS-модуль" style="text;html=1;align=center;verticalAlign=middle;whiteSpace=wrap;rounded=0;" vertex="1" parent="1">
          <mxGeometry x="26" y="392" width="146" height="28" as="geometry" />
        </mxCell>
        <mxCell id="FOn3hF4wjPo6RzS9PWlS-32" value="Дисплей" style="text;html=1;align=center;verticalAlign=middle;whiteSpace=wrap;rounded=0;" vertex="1" parent="1">
          <mxGeometry x="753" y="317" width="146" height="28" as="geometry" />
        </mxCell>
        <mxCell id="FOn3hF4wjPo6RzS9PWlS-33" value="Динаміки" style="text;html=1;align=center;verticalAlign=middle;whiteSpace=wrap;rounded=0;" vertex="1" parent="1">
          <mxGeometry x="753" y="336" width="146" height="28" as="geometry" />
        </mxCell>
        <mxCell id="FOn3hF4wjPo6RzS9PWlS-34" value="Вібрації" style="text;html=1;align=center;verticalAlign=middle;whiteSpace=wrap;rounded=0;" vertex="1" parent="1">
          <mxGeometry x="753" y="355" width="146" height="28" as="geometry" />
        </mxCell>
        <mxCell id="FOn3hF4wjPo6RzS9PWlS-35" value="LED-індикатори" style="text;html=1;align=center;verticalAlign=middle;whiteSpace=wrap;rounded=0;" vertex="1" parent="1">
          <mxGeometry x="753" y="373" width="146" height="28" as="geometry" />
        </mxCell>
        <mxCell id="FOn3hF4wjPo6RzS9PWlS-36" value="Wi-Fi" style="text;html=1;align=center;verticalAlign=middle;whiteSpace=wrap;rounded=0;" vertex="1" parent="1">
          <mxGeometry x="753" y="394" width="146" height="28" as="geometry" />
        </mxCell>
        <mxCell id="FOn3hF4wjPo6RzS9PWlS-37" value="Bluetooth" style="text;html=1;align=center;verticalAlign=middle;whiteSpace=wrap;rounded=0;" vertex="1" parent="1">
          <mxGeometry x="753" y="414" width="146" height="28" as="geometry" />
        </mxCell>
        <mxCell id="FOn3hF4wjPo6RzS9PWlS-47" value="" style="endArrow=classic;html=1;rounded=0;entryX=0;entryY=0;entryDx=309;entryDy=106.5;entryPerimeter=0;startSize=5;strokeColor=default;strokeWidth=2;exitX=0;exitY=0.488;exitDx=0;exitDy=0;exitPerimeter=0;" edge="1" parent="1" source="FOn3hF4wjPo6RzS9PWlS-8">
          <mxGeometry width="50" height="50" relative="1" as="geometry">
            <mxPoint x="622" y="386.94" as="sourcePoint" />
            <mxPoint x="779" y="386.94" as="targetPoint" />
          </mxGeometry>
        </mxCell>
        <mxCell id="FOn3hF4wjPo6RzS9PWlS-48" value="" style="endArrow=classic;html=1;rounded=0;entryX=0;entryY=0;entryDx=309;entryDy=106.5;entryPerimeter=0;startSize=5;strokeColor=default;strokeWidth=2;exitX=0;exitY=0;exitDx=0;exitDy=69.5;exitPerimeter=0;" edge="1" parent="1" source="FOn3hF4wjPo6RzS9PWlS-8">
          <mxGeometry width="50" height="50" relative="1" as="geometry">
            <mxPoint x="619" y="368" as="sourcePoint" />
            <mxPoint x="779" y="369.94" as="targetPoint" />
          </mxGeometry>
        </mxCell>
        <mxCell id="FOn3hF4wjPo6RzS9PWlS-49" value="" style="endArrow=classic;html=1;rounded=0;startSize=5;strokeColor=default;strokeWidth=2;exitX=0.001;exitY=0.276;exitDx=0;exitDy=0;exitPerimeter=0;" edge="1" parent="1" source="FOn3hF4wjPo6RzS9PWlS-8">
          <mxGeometry width="50" height="50" relative="1" as="geometry">
            <mxPoint x="620" y="350" as="sourcePoint" />
            <mxPoint x="779" y="350" as="targetPoint" />
          </mxGeometry>
        </mxCell>
        <mxCell id="FOn3hF4wjPo6RzS9PWlS-50" value="" style="endArrow=classic;html=1;rounded=0;entryX=0;entryY=0;entryDx=309;entryDy=106.5;entryPerimeter=0;startSize=5;strokeColor=default;strokeWidth=2;exitX=0;exitY=0.602;exitDx=0;exitDy=0;exitPerimeter=0;" edge="1" parent="1" source="FOn3hF4wjPo6RzS9PWlS-8">
          <mxGeometry width="50" height="50" relative="1" as="geometry">
            <mxPoint x="622" y="406.94" as="sourcePoint" />
            <mxPoint x="779" y="406.94" as="targetPoint" />
          </mxGeometry>
        </mxCell>
        <mxCell id="FOn3hF4wjPo6RzS9PWlS-51" value="" style="endArrow=classic;html=1;rounded=0;entryX=0;entryY=0;entryDx=309;entryDy=106.5;entryPerimeter=0;startSize=5;strokeColor=default;strokeWidth=2;exitX=0;exitY=0.716;exitDx=0;exitDy=0;exitPerimeter=0;" edge="1" parent="1" source="FOn3hF4wjPo6RzS9PWlS-8">
          <mxGeometry width="50" height="50" relative="1" as="geometry">
            <mxPoint x="622" y="427.94" as="sourcePoint" />
            <mxPoint x="779" y="427.94" as="targetPoint" />
          </mxGeometry>
        </mxCell>
        <mxCell id="FOn3hF4wjPo6RzS9PWlS-53" value="" style="endArrow=classic;html=1;rounded=0;entryX=0;entryY=0;entryDx=309;entryDy=106.5;entryPerimeter=0;startSize=5;strokeColor=default;strokeWidth=2;exitX=0;exitY=0.164;exitDx=0;exitDy=0;exitPerimeter=0;" edge="1" parent="1" source="FOn3hF4wjPo6RzS9PWlS-8">
          <mxGeometry width="50" height="50" relative="1" as="geometry">
            <mxPoint x="623" y="329.94" as="sourcePoint" />
            <mxPoint x="779" y="329.94" as="targetPoint" />
          </mxGeometry>
        </mxCell>
        <mxCell id="FOn3hF4wjPo6RzS9PWlS-54" value="&lt;font style=&quot;font-size: 27px;&quot;&gt;Смартфон&lt;/font&gt;" style="text;html=1;align=center;verticalAlign=middle;whiteSpace=wrap;rounded=0;" vertex="1" parent="1">
          <mxGeometry x="336" y="367.5" width="228" height="81" as="geometry" />
        </mxCell>
      </root>
    </mxGraphModel>
  </diagram>
</mxfile>
